<?xml version="1.0" standalone="no"?>
<!DOCTYPE svg PUBLIC "-//W3C//DTD SVG 20010904//EN"
 "http://www.w3.org/TR/2001/REC-SVG-20010904/DTD/svg10.dtd">
<svg version="1.0" xmlns="http://www.w3.org/2000/svg"
 width="512.000000pt" height="512.000000pt" viewBox="0 0 512.000000 512.000000"
 preserveAspectRatio="xMidYMid meet">

<g transform="translate(0.000000,512.000000) scale(0.100000,-0.100000)"
fill="#000000" stroke="none">
<path d="M2514 4161 c-167 -97 -294 -328 -294 -536 0 -33 4 -65 8 -71 7 -11
139 -40 146 -33 2 2 -2 33 -10 69 -17 81 -6 131 32 149 43 19 135 24 179 9 39
-13 40 -14 39 -61 0 -34 -10 -66 -38 -118 -20 -39 -35 -74 -32 -76 8 -9 80
-23 116 -23 32 0 37 4 47 33 39 108 47 165 47 312 1 170 -11 214 -82 316 -47
68 -81 74 -158 30z m73 -109 c16 -10 49 -87 57 -132 10 -58 3 -61 -122 -54
-97 6 -112 9 -112 24 0 24 75 116 119 145 39 28 41 28 58 17z"/>
<path d="M700 3811 l-45 -19 -6 -98 c-10 -143 -40 -254 -70 -254 -18 0 -39 68
-57 181 -11 70 -21 109 -29 109 -7 0 -37 -9 -68 -21 -37 -14 -55 -26 -55 -37
0 -68 106 -400 172 -544 33 -71 45 -88 63 -88 32 0 116 31 121 44 2 6 -16 47
-41 91 -25 44 -45 92 -45 108 0 34 36 107 53 107 37 0 133 -117 163 -199 10
-28 23 -51 29 -51 23 0 135 42 135 51 0 5 -13 36 -30 68 -38 76 -126 171 -201
218 -33 20 -59 42 -59 49 0 7 9 51 20 99 21 87 24 196 5 201 -5 2 -30 -5 -55
-15z"/>
<path d="M1576 3448 c-26 -26 -34 -45 -40 -88 -34 -268 -121 -504 -279 -764
-41 -67 -67 -120 -67 -138 0 -49 44 -83 155 -118 55 -17 142 -50 193 -72 52
-23 97 -37 101 -32 12 15 203 1106 194 1114 -101 85 -132 109 -150 119 -39 20
-73 13 -107 -21z"/>
<path d="M3281 3239 c-182 -31 -331 -185 -347 -360 l-7 -65 -83 -11 c-199 -27
-343 -158 -375 -339 -36 -208 126 -427 351 -475 32 -7 90 -9 142 -6 l87 6 -14
-37 c-26 -73 -53 -128 -89 -181 -42 -61 -45 -93 -13 -124 18 -19 55 -29 203
-55 210 -37 245 -39 267 -14 21 23 21 47 2 137 -15 73 -21 219 -7 213 4 -2 36
-18 70 -35 268 -132 584 15 633 296 29 165 -75 354 -241 433 -36 18 -66 33
-68 34 -2 1 4 28 14 60 67 230 -109 482 -366 523 -73 12 -84 12 -159 0z"/>
<path d="M3859 1253 c-53 -136 -74 -360 -45 -472 32 -125 103 -231 155 -231
38 0 119 50 183 113 102 101 166 237 187 397 11 86 6 127 -18 140 -9 5 -44 12
-78 15 l-61 7 14 -58 c18 -75 10 -128 -23 -154 -21 -16 -41 -20 -107 -20 -107
0 -131 15 -122 73 4 23 24 74 45 115 25 47 35 75 28 77 -14 5 -127 25 -139 25
-5 0 -13 -12 -19 -27z m290 -389 c12 -11 -17 -59 -69 -113 -50 -50 -66 -62
-88 -59 -34 4 -63 61 -70 136 l-5 54 114 -7 c63 -4 116 -9 118 -11z"/>
<path d="M1978 512 c-53 -20 -99 -40 -102 -43 -3 -3 17 -11 45 -17 49 -12 56
-10 165 30 120 44 125 52 39 61 -41 5 -66 -1 -147 -31z"/>
</g>
</svg>
