<?xml version="1.0" standalone="no"?>
<!DOCTYPE svg PUBLIC "-//W3C//DTD SVG 20010904//EN"
 "http://www.w3.org/TR/2001/REC-SVG-20010904/DTD/svg10.dtd">
<svg version="1.0" xmlns="http://www.w3.org/2000/svg"
 width="822.000000pt" height="847.000000pt" viewBox="0 0 822.000000 847.000000"
 preserveAspectRatio="xMidYMid meet">

<g transform="translate(0.000000,847.000000) scale(0.100000,-0.100000)"
fill="#000000" stroke="none">
<path d="M3720 8443 c-275 -44 -528 -197 -698 -423 -104 -137 -190 -329 -227
-507 -23 -111 -33 -294 -50 -853 -27 -906 -58 -1321 -136 -1845 -32 -211 -91
-506 -137 -689 l-28 -110 -59 75 c-257 323 -518 554 -772 682 -73 37 -249 95
-327 107 -72 11 -239 14 -291 5 -309 -55 -541 -192 -812 -479 -103 -109 -151
-199 -160 -301 -27 -324 335 -667 1113 -1058 144 -73 199 -106 230 -139 62
-65 139 -186 244 -383 207 -387 345 -629 443 -774 32 -48 47 -78 41 -86 -48
-62 -97 -148 -116 -203 -29 -85 -31 -234 -5 -331 53 -196 217 -428 397 -563
88 -66 237 -152 375 -218 128 -61 173 -80 365 -153 137 -52 402 -122 580 -154
100 -18 422 -25 490 -11 19 4 44 10 55 12 215 45 424 152 505 260 79 104 115
225 103 349 l-5 62 164 82 c515 258 907 620 1230 1137 219 350 374 716 468
1106 71 294 98 387 156 534 154 388 349 760 869 1661 308 533 433 766 466 869
18 57 21 82 15 146 -21 251 -150 415 -376 475 -190 51 -486 -18 -685 -160 -70
-50 -144 -127 -269 -279 -188 -229 -717 -797 -724 -777 -8 24 191 641 323
1001 46 124 120 317 165 430 45 113 100 250 122 304 63 157 80 235 82 366 1
132 -20 218 -79 318 -38 66 -141 167 -211 208 -63 37 -163 73 -254 90 -168 33
-442 3 -593 -65 -23 -10 -64 -28 -90 -39 -79 -35 -211 -126 -290 -202 -140
-132 -204 -232 -317 -493 -43 -100 -139 -315 -212 -477 -74 -162 -177 -395
-229 -517 l-94 -223 -6 63 c-27 259 -41 991 -29 1462 4 159 2 201 -13 259 -53
210 -204 365 -415 427 -63 19 -230 31 -292 22z m281 -260 c84 -38 129 -79 166
-150 53 -99 57 -142 42 -462 -14 -326 -6 -644 36 -1421 14 -250 25 -518 25
-595 0 -238 28 -484 80 -720 29 -128 94 -363 105 -373 3 -3 5 164 5 371 0 377
10 626 31 747 26 144 230 650 534 1320 81 179 176 392 212 474 94 221 182 342
321 444 125 92 267 154 420 183 95 18 292 7 365 -21 227 -86 313 -244 262
-483 -8 -38 -64 -191 -124 -341 -395 -980 -639 -1778 -703 -2296 -27 -216 -12
-809 21 -843 7 -7 20 47 153 663 44 204 79 345 96 380 19 40 51 79 121 145
291 271 753 766 963 1031 73 91 132 141 227 192 157 84 348 110 459 62 96 -42
148 -122 159 -251 8 -87 -28 -159 -452 -894 -340 -589 -479 -841 -630 -1140
-224 -443 -312 -673 -390 -1005 -101 -434 -224 -743 -442 -1106 -334 -555
-784 -947 -1365 -1188 -89 -36 -102 -40 -210 -55 -251 -35 -783 57 -1173 204
-39 14 -95 35 -126 46 -85 30 -350 162 -421 210 -135 90 -234 185 -370 353
-148 184 -276 390 -493 796 -205 383 -299 534 -391 625 -45 45 -87 71 -237
146 -222 111 -388 204 -525 293 -391 253 -560 472 -482 625 26 52 158 190 258
271 146 118 301 197 451 231 51 12 215 14 275 4 326 -54 694 -351 1071 -862
96 -131 121 -150 182 -140 59 10 79 40 119 172 177 597 280 1291 323 2170 11
212 15 348 31 890 11 376 23 524 50 632 79 306 275 543 541 650 93 37 174 52
275 48 74 -3 102 -8 155 -32z m-1426 -7016 c187 -140 608 -324 960 -421 432
-118 809 -158 1049 -111 l39 8 -6 -55 c-7 -70 -34 -124 -86 -171 -55 -50 -187
-115 -267 -132 -10 -2 -50 -11 -89 -20 -278 -66 -852 58 -1325 286 -296 143
-450 262 -565 439 -112 173 -135 359 -59 468 16 23 16 22 137 -100 67 -68 163
-154 212 -191z"/>
<path d="M4190 2849 c-52 -11 -75 -47 -113 -171 -20 -62 -65 -212 -102 -333
-82 -270 -162 -498 -255 -726 -80 -197 -85 -232 -42 -280 21 -24 39 -32 73
-36 72 -8 96 21 168 197 87 214 181 479 249 700 33 107 83 270 111 361 28 91
51 175 51 186 0 31 -42 85 -75 98 -18 7 -44 9 -65 4z"/>
<path d="M3274 2576 c-18 -8 -37 -28 -46 -47 -9 -19 -32 -140 -53 -269 -41
-264 -56 -337 -110 -561 -41 -169 -41 -195 2 -235 51 -47 123 -40 165 17 38
50 115 398 179 806 36 226 34 248 -25 284 -36 22 -69 23 -112 5z"/>
<path d="M4738 2277 c-13 -12 -68 -109 -121 -214 -111 -218 -214 -387 -339
-554 -104 -141 -108 -148 -108 -196 0 -73 70 -121 147 -101 25 6 51 34 128
138 146 198 255 374 370 602 105 207 117 242 94 291 -26 57 -125 77 -171 34z"/>
</g>
</svg>
