<?xml version="1.0" standalone="no"?>
<!DOCTYPE svg PUBLIC "-//W3C//DTD SVG 20010904//EN"
 "http://www.w3.org/TR/2001/REC-SVG-20010904/DTD/svg10.dtd">
<svg version="1.0" xmlns="http://www.w3.org/2000/svg"
 width="793.000000pt" height="785.000000pt" viewBox="0 0 793.000000 785.000000"
 preserveAspectRatio="xMidYMid meet">

<g transform="translate(0.000000,785.000000) scale(0.100000,-0.100000)"
fill="#000000" stroke="none">
<path d="M3225 7824 c-355 -38 -675 -161 -932 -361 -220 -170 -386 -382 -523
-666 -80 -166 -121 -275 -187 -491 l-47 -158 -30 6 c-286 48 -527 20 -754 -89
-210 -100 -365 -239 -497 -443 -211 -328 -264 -785 -134 -1172 58 -175 170
-369 288 -502 28 -31 51 -60 51 -65 0 -4 -19 -21 -41 -38 -85 -62 -194 -209
-258 -346 -240 -511 -186 -1235 125 -1699 62 -93 176 -215 262 -280 75 -57
261 -151 337 -171 58 -14 65 -22 65 -67 0 -19 9 -77 20 -130 55 -271 173 -489
359 -664 105 -99 185 -155 323 -228 353 -184 849 -267 1443 -240 688 32 1213
150 1740 392 392 180 707 377 1014 633 400 333 774 813 1027 1318 52 103 57
109 82 104 148 -26 185 -29 260 -18 205 30 387 195 513 467 50 106 131 350
153 454 41 202 53 547 27 820 -60 632 -234 1325 -446 1767 -260 543 -703 865
-1086 789 -84 -17 -195 -65 -257 -112 l-32 -25 -98 94 c-524 510 -1295 920
-1998 1062 -224 46 -315 56 -524 60 -113 1 -223 1 -245 -1z m345 -334 c304
-22 584 -87 921 -214 167 -63 461 -203 569 -271 22 -14 42 -25 45 -25 9 0 282
-182 355 -236 454 -339 812 -765 987 -1177 145 -340 286 -922 352 -1452 35
-281 44 -441 38 -722 -8 -390 -29 -492 -161 -768 -359 -750 -870 -1306 -1576
-1716 -99 -58 -381 -198 -460 -229 -30 -12 -68 -28 -85 -35 -46 -22 -259 -95
-355 -123 -120 -34 -400 -97 -495 -111 -541 -78 -978 -86 -1350 -26 -163 26
-192 33 -349 79 -105 31 -273 111 -365 174 -125 84 -253 226 -314 347 -35 70
-76 207 -84 275 l-6 58 179 6 c99 4 235 12 304 17 117 9 443 58 520 78 96 25
242 73 300 99 l65 29 -55 6 c-30 3 -224 18 -430 32 -206 15 -427 31 -490 35
-63 5 -223 14 -355 19 -248 10 -287 16 -404 65 -244 99 -438 347 -521 664 -64
244 -66 571 -4 792 63 225 181 398 322 469 94 47 135 50 317 22 141 -21 195
-24 460 -25 217 -1 321 3 375 13 107 20 322 66 410 88 l75 20 -40 7 c-22 3
-125 17 -230 31 -428 54 -653 94 -993 175 -242 58 -348 118 -463 263 -225 284
-298 626 -204 951 97 334 354 582 673 648 127 26 343 21 472 -12 78 -20 102
-21 280 -16 332 9 574 52 805 141 165 64 258 119 410 241 107 85 188 169 392
404 83 96 178 203 211 238 34 34 59 62 56 62 -4 0 -191 -136 -224 -163 -45
-37 -216 -161 -285 -207 -44 -29 -92 -61 -106 -71 -14 -9 -82 -46 -150 -82
-294 -152 -569 -223 -948 -243 -128 -7 -133 -6 -127 12 3 10 19 65 36 121 188
635 515 1007 1034 1173 138 45 209 59 351 69 147 12 157 12 315 1z m3099
-1104 c174 -75 361 -257 480 -466 207 -362 393 -1025 467 -1665 25 -209 25
-612 1 -747 -22 -128 -93 -340 -153 -463 -90 -183 -222 -286 -348 -271 -27 3
-51 7 -53 10 -3 2 4 46 15 98 40 186 47 274 47 593 0 310 -7 413 -46 715 -59
461 -174 970 -297 1315 -107 299 -232 534 -414 778 -32 43 -58 81 -58 86 0 8
74 43 115 54 51 14 167 -3 244 -37z"/>
<path d="M5959 5200 c-182 -39 -500 -77 -816 -96 -294 -17 -312 -22 -350 -94
-45 -84 -16 -197 59 -233 36 -18 48 -18 300 -3 320 20 316 19 616 62 362 51
413 66 449 129 42 75 26 175 -36 228 -40 33 -93 35 -222 7z"/>
<path d="M6050 4264 c-69 -24 -161 -56 -205 -69 -44 -14 -98 -32 -120 -40 -69
-27 -430 -125 -585 -160 -58 -14 -130 -31 -160 -40 -30 -8 -116 -28 -190 -45
-360 -80 -380 -85 -416 -121 -65 -66 -68 -167 -8 -238 46 -55 73 -56 252 -17
88 20 165 38 173 41 8 3 75 18 149 35 363 80 720 177 995 270 66 22 161 54
212 70 138 45 183 92 183 190 0 29 -7 67 -16 86 -18 37 -87 85 -120 83 -10 0
-75 -21 -144 -45z"/>
<path d="M6163 3503 c-23 -16 -113 -76 -200 -134 -263 -177 -414 -261 -658
-368 -184 -81 -288 -131 -309 -150 -31 -27 -49 -73 -49 -126 0 -88 51 -154
125 -162 36 -4 58 2 128 35 47 22 123 57 170 77 302 131 595 300 915 528 77
54 108 110 102 184 -9 123 -124 183 -224 116z"/>
</g>
</svg>
