<?xml version="1.0" standalone="no"?>
<!DOCTYPE svg PUBLIC "-//W3C//DTD SVG 20010904//EN"
 "http://www.w3.org/TR/2001/REC-SVG-20010904/DTD/svg10.dtd">
<svg version="1.0" xmlns="http://www.w3.org/2000/svg"
 width="512.000000pt" height="512.000000pt" viewBox="0 0 512.000000 512.000000"
 preserveAspectRatio="xMidYMid meet">
<metadata>
Created by potrace 1.11, written by Peter Selinger 2001-2013
</metadata>
<g transform="translate(0.000000,512.000000) scale(0.100000,-0.100000)"
fill="#000000" stroke="none">
<path d="M2215 4865 c-38 -7 -119 -32 -180 -55 -60 -23 -128 -48 -150 -55
-195 -63 -1410 -515 -1480 -550 -305 -150 -461 -495 -381 -840 5 -24 63 -191
76 -220 5 -11 20 -51 33 -90 14 -38 93 -257 177 -485 84 -228 170 -462 190
-520 21 -58 52 -143 69 -190 18 -47 42 -114 55 -150 237 -651 328 -895 355
-949 33 -64 90 -140 140 -185 24 -23 49 -45 55 -51 56 -51 195 -118 294 -141
81 -19 199 -24 279 -12 60 9 244 66 395 124 l87 33 138 -24 c76 -14 149 -27
163 -29 14 -3 77 -14 140 -25 63 -11 126 -23 140 -26 14 -3 39 -7 55 -10 44
-7 316 -55 345 -61 14 -2 41 -7 60 -10 19 -3 67 -12 105 -19 39 -7 90 -17 115
-20 68 -11 88 -15 170 -31 188 -36 331 -40 445 -10 267 71 478 291 538 561 14
62 44 225 52 280 2 11 6 34 9 50 3 17 11 59 17 95 5 36 14 84 20 108 5 23 12
59 14 80 3 20 10 57 15 82 5 25 12 63 15 85 9 49 12 68 30 170 8 44 16 91 19
105 2 14 11 63 20 110 16 90 22 121 32 185 3 22 7 42 9 45 2 3 6 26 10 50 3
25 10 68 15 95 5 28 12 64 15 80 3 17 7 41 10 55 3 14 8 41 11 60 3 19 15 85
26 145 11 61 22 121 24 135 3 14 11 61 19 105 8 44 17 96 20 115 3 19 12 69
19 110 17 88 24 126 37 200 18 99 19 240 3 317 -66 322 -324 556 -659 599 -27
3 -53 8 -57 10 -4 3 -24 7 -45 9 -21 2 -49 7 -63 10 -20 4 -255 46 -335 59
-11 2 -58 11 -105 20 -105 19 -123 22 -235 41 -123 22 -136 24 -165 30 -50 9
-148 27 -303 54 -146 26 -159 30 -180 57 -182 234 -462 343 -742 289z"/>
</g>
</svg>
