<?xml version="1.0" standalone="no"?>
<!DOCTYPE svg PUBLIC "-//W3C//DTD SVG 20010904//EN"
 "http://www.w3.org/TR/2001/REC-SVG-20010904/DTD/svg10.dtd">
<svg version="1.0" xmlns="http://www.w3.org/2000/svg"
 width="1050.000000pt" height="739.000000pt" viewBox="0 0 1050.000000 739.000000"
 preserveAspectRatio="xMidYMid meet">

<g transform="translate(0.000000,739.000000) scale(0.100000,-0.100000)"
fill="#000000" stroke="none">
<path d="M4100 7380 c-574 -44 -1121 -186 -1601 -417 l-137 -65 -73 62 c-287
241 -690 219 -1106 -59 -265 -177 -548 -546 -803 -1046 -273 -538 -406 -1025
-370 -1365 34 -327 111 -533 254 -676 112 -112 260 -172 431 -174 l50 -1 63
-192 c245 -747 708 -1368 1406 -1890 365 -272 747 -481 1172 -640 847 -317
1747 -205 2668 333 75 44 143 80 151 80 7 0 108 -40 222 -89 607 -259 1232
-575 1958 -991 329 -189 439 -230 646 -246 230 -17 477 96 618 283 198 264
264 633 181 1014 -76 349 -273 654 -560 866 -30 22 -134 88 -230 145 -96 57
-348 212 -560 345 -212 132 -494 304 -628 383 -133 78 -241 144 -240 146 2 1
138 -8 303 -22 749 -61 1115 -105 1500 -181 216 -43 389 -49 510 -19 284 72
483 284 551 588 23 101 23 326 0 433 -59 273 -176 485 -381 691 -212 213 -438
339 -755 420 -243 61 -764 135 -1470 209 -684 72 -1196 142 -1210 165 -4 6
-12 70 -19 142 -57 608 -273 1030 -685 1340 -300 225 -660 357 -1126 414 -149
18 -569 26 -730 14z m640 -291 c311 -28 578 -101 810 -220 468 -240 723 -612
794 -1159 26 -204 27 -192 -8 -184 -276 60 -606 199 -834 351 -173 115 -277
205 -519 452 -123 124 -223 222 -223 218 0 -4 26 -47 58 -95 32 -48 103 -159
157 -246 270 -437 481 -627 890 -802 440 -189 819 -261 2050 -389 740 -77
1267 -159 1481 -230 194 -64 377 -178 512 -319 128 -134 217 -282 269 -453 24
-79 27 -104 27 -243 1 -138 -2 -163 -23 -223 -30 -90 -94 -182 -156 -229 -79
-60 -143 -80 -270 -85 -97 -4 -132 -1 -292 31 -438 85 -846 131 -1948 216
-214 17 -482 41 -595 55 -383 45 -665 56 -941 35 -125 -10 -538 -65 -546 -73
-2 -2 99 -16 224 -31 471 -56 929 -131 1133 -187 180 -48 749 -369 1605 -904
204 -127 435 -270 515 -317 178 -105 245 -155 333 -244 219 -224 337 -513 337
-825 0 -318 -118 -563 -319 -662 -57 -28 -77 -32 -165 -35 -175 -7 -250 21
-606 225 -763 436 -1412 761 -2065 1033 -426 177 -787 276 -1225 335 -141 19
-550 32 -535 17 10 -10 492 -187 950 -349 132 -46 241 -86 243 -87 5 -6 -290
-153 -398 -199 -382 -162 -741 -239 -1115 -240 -352 0 -600 51 -962 197 -421
170 -775 379 -1152 680 -149 118 -466 432 -573 566 -297 374 -495 757 -635
1230 -43 145 -46 165 -51 296 -3 100 1 173 13 254 90 615 552 1586 939 1973
605 605 1760 960 2816 866z m-2733 -283 c57 -26 102 -60 92 -70 -2 -2 -43 -33
-91 -68 -298 -220 -493 -448 -723 -848 -358 -624 -592 -1312 -598 -1762 l-2
-128 -36 0 c-53 0 -122 27 -167 66 -151 129 -229 508 -172 836 86 497 446
1224 810 1638 148 167 346 294 550 351 49 14 91 18 170 16 90 -2 114 -7 167
-31z"/>
<path d="M2233 5720 c-71 -43 -85 -153 -26 -211 56 -57 465 -209 921 -344 317
-93 328 -94 389 -49 74 56 65 187 -16 229 -15 7 -135 45 -266 84 -350 103
-565 176 -814 280 -86 36 -142 39 -188 11z"/>
<path d="M1793 5051 c-89 -56 -95 -172 -12 -233 51 -38 315 -186 516 -291 232
-119 408 -204 787 -376 333 -152 361 -159 423 -121 83 50 83 180 0 234 -13 9
-187 91 -388 182 -430 196 -741 351 -1009 505 -217 124 -258 137 -317 100z"/>
<path d="M1593 4370 c-18 -10 -39 -33 -48 -49 -20 -40 -19 -110 3 -141 20 -30
246 -248 352 -341 163 -142 286 -234 564 -423 158 -107 160 -108 208 -104 116
12 170 154 89 235 -15 16 -90 71 -167 122 -297 201 -460 333 -713 574 -74 71
-145 133 -158 138 -40 15 -96 10 -130 -11z"/>
</g>
</svg>
